# xmcd
#
# Track frame offsets: 
#        150
#        12758
#        29118
#        46039
#        66677
#        95849
#
# Disc length: 4597 seconds
#
# Revision: 4
# Processed by: cddbd v1.5.2PL0 Copyright (c) Steve Scherf et al.
# Submitted via: ExactAudioCopy v1.1
#
DISCID=5111f306
DTITLE=Various Artist - Virgin Radio CD2
DYEAR=1999
DGENRE=Alternative
TTITLE0=James - Laid
TTITLE1=Ocean Colour Scene - Profit In Peace
TTITLE2=The Beautiful South - Dumb
TTITLE3=Del Amitri - Kiss This Thing Goodbye
TTITLE4=Shed Seven - Disco Down
TTITLE5=[data] - Computer game
EXTD=YEAR: 1999 ID3G: 20
EXTT0=
EXTT1=
EXTT2=
EXTT3=
EXTT4=
EXTT5=
PLAYORDER=
